<mxfile host="app.diagrams.net" modified="2024-03-24T21:10:26.802Z" agent="Mozilla/5.0 (Windows NT 10.0; Win64; x64) AppleWebKit/537.36 (KHTML, like Gecko) Chrome/123.0.0.0 Safari/537.36" etag="jv-aAnCK5f530kOqwchh" version="24.0.5" type="github">
  <diagram name="Page-1" id="fQXhnXJU5OYFlRjVlm_n">
    <mxGraphModel dx="704" dy="673" grid="1" gridSize="10" guides="1" tooltips="1" connect="1" arrows="1" fold="1" page="1" pageScale="1" pageWidth="850" pageHeight="1100" math="0" shadow="0">
      <root>
        <mxCell id="0" />
        <mxCell id="1" parent="0" />
        <mxCell id="-gom4GnlRCwxRRsbgBjQ-17" value="" style="rounded=1;whiteSpace=wrap;html=1;dashed=1;" vertex="1" parent="1">
          <mxGeometry x="140" y="440" width="500" height="560" as="geometry" />
        </mxCell>
        <mxCell id="-gom4GnlRCwxRRsbgBjQ-11" value="" style="rounded=1;whiteSpace=wrap;html=1;dashed=1;" vertex="1" parent="1">
          <mxGeometry x="160" y="773" width="320" height="198.5" as="geometry" />
        </mxCell>
        <mxCell id="-gom4GnlRCwxRRsbgBjQ-8" value="" style="rounded=1;whiteSpace=wrap;html=1;dashed=1;" vertex="1" parent="1">
          <mxGeometry x="160" y="560" width="220" height="180" as="geometry" />
        </mxCell>
        <mxCell id="Y7p48lvoJFKEkkNzNsCW-2" value="Windows DNS server" style="sketch=0;pointerEvents=1;shadow=0;dashed=0;html=1;strokeColor=none;fillColor=#505050;labelPosition=center;verticalLabelPosition=bottom;verticalAlign=top;outlineConnect=0;align=center;shape=mxgraph.office.servers.windows_server;" parent="1" vertex="1">
          <mxGeometry x="540" y="681.5" width="52" height="55" as="geometry" />
        </mxCell>
        <mxCell id="-gom4GnlRCwxRRsbgBjQ-1" value="Windows NTP server" style="sketch=0;pointerEvents=1;shadow=0;dashed=0;html=1;strokeColor=none;fillColor=#505050;labelPosition=center;verticalLabelPosition=bottom;verticalAlign=top;outlineConnect=0;align=center;shape=mxgraph.office.servers.windows_server;" vertex="1" parent="1">
          <mxGeometry x="540" y="791.5" width="52" height="55" as="geometry" />
        </mxCell>
        <mxCell id="-gom4GnlRCwxRRsbgBjQ-2" value="Windows DC server" style="sketch=0;pointerEvents=1;shadow=0;dashed=0;html=1;strokeColor=none;fillColor=#505050;labelPosition=center;verticalLabelPosition=bottom;verticalAlign=top;outlineConnect=0;align=center;shape=mxgraph.office.servers.windows_server;" vertex="1" parent="1">
          <mxGeometry x="540" y="571.5" width="52" height="55" as="geometry" />
        </mxCell>
        <mxCell id="-gom4GnlRCwxRRsbgBjQ-3" value="ESXi node2 (phys)" style="shadow=0;dashed=0;html=1;labelPosition=center;verticalLabelPosition=bottom;verticalAlign=top;align=center;outlineConnect=0;shape=mxgraph.veeam.3d.esx_esxi;" vertex="1" parent="1">
          <mxGeometry x="300" y="571.5" width="38" height="52" as="geometry" />
        </mxCell>
        <mxCell id="-gom4GnlRCwxRRsbgBjQ-4" value="ESXi node1(phys)" style="shadow=0;dashed=0;html=1;labelPosition=center;verticalLabelPosition=bottom;verticalAlign=top;align=center;outlineConnect=0;shape=mxgraph.veeam.3d.esx_esxi;" vertex="1" parent="1">
          <mxGeometry x="190" y="571.5" width="38" height="52" as="geometry" />
        </mxCell>
        <mxCell id="-gom4GnlRCwxRRsbgBjQ-6" value="Storage" style="fontColor=#0066CC;verticalAlign=top;verticalLabelPosition=bottom;labelPosition=center;align=center;html=1;outlineConnect=0;fillColor=#CCCCCC;strokeColor=#6881B3;gradientColor=none;gradientDirection=north;strokeWidth=2;shape=mxgraph.networks.server_storage;" vertex="1" parent="1">
          <mxGeometry x="160" y="470" width="50" height="51.5" as="geometry" />
        </mxCell>
        <mxCell id="-gom4GnlRCwxRRsbgBjQ-7" value="ESXi host (phys)" style="shadow=0;dashed=0;html=1;labelPosition=center;verticalLabelPosition=bottom;verticalAlign=top;align=center;outlineConnect=0;shape=mxgraph.veeam.3d.esx_esxi;" vertex="1" parent="1">
          <mxGeometry x="191" y="791.5" width="38" height="52" as="geometry" />
        </mxCell>
        <mxCell id="-gom4GnlRCwxRRsbgBjQ-9" value="ESXi host (phys)" style="shadow=0;dashed=0;html=1;labelPosition=center;verticalLabelPosition=bottom;verticalAlign=top;align=center;outlineConnect=0;shape=mxgraph.veeam.3d.esx_esxi;" vertex="1" parent="1">
          <mxGeometry x="302" y="791.5" width="38" height="52" as="geometry" />
        </mxCell>
        <mxCell id="-gom4GnlRCwxRRsbgBjQ-10" value="ESXi host (phys)" style="shadow=0;dashed=0;html=1;labelPosition=center;verticalLabelPosition=bottom;verticalAlign=top;align=center;outlineConnect=0;shape=mxgraph.veeam.3d.esx_esxi;" vertex="1" parent="1">
          <mxGeometry x="411" y="791.5" width="38" height="52" as="geometry" />
        </mxCell>
        <mxCell id="-gom4GnlRCwxRRsbgBjQ-12" value="Cluster1 - management" style="text;html=1;align=center;verticalAlign=middle;whiteSpace=wrap;rounded=0;" vertex="1" parent="1">
          <mxGeometry x="160" y="538.5" width="130" height="30" as="geometry" />
        </mxCell>
        <mxCell id="-gom4GnlRCwxRRsbgBjQ-13" value="Cluster2 - production" style="text;html=1;align=center;verticalAlign=middle;whiteSpace=wrap;rounded=0;" vertex="1" parent="1">
          <mxGeometry x="150" y="750" width="130" height="30" as="geometry" />
        </mxCell>
        <mxCell id="-gom4GnlRCwxRRsbgBjQ-14" value="ESXi host (phys)" style="shadow=0;dashed=0;html=1;labelPosition=center;verticalLabelPosition=bottom;verticalAlign=top;align=center;outlineConnect=0;shape=mxgraph.veeam.3d.esx_esxi;" vertex="1" parent="1">
          <mxGeometry x="191" y="880.5" width="38" height="52" as="geometry" />
        </mxCell>
        <mxCell id="-gom4GnlRCwxRRsbgBjQ-15" value="ESXi host (phys)" style="shadow=0;dashed=0;html=1;labelPosition=center;verticalLabelPosition=bottom;verticalAlign=top;align=center;outlineConnect=0;shape=mxgraph.veeam.3d.esx_esxi;" vertex="1" parent="1">
          <mxGeometry x="302" y="880.5" width="38" height="52" as="geometry" />
        </mxCell>
        <mxCell id="-gom4GnlRCwxRRsbgBjQ-16" value="ESXi host (phys)" style="shadow=0;dashed=0;html=1;labelPosition=center;verticalLabelPosition=bottom;verticalAlign=top;align=center;outlineConnect=0;shape=mxgraph.veeam.3d.esx_esxi;" vertex="1" parent="1">
          <mxGeometry x="411" y="880.5" width="38" height="52" as="geometry" />
        </mxCell>
        <mxCell id="-gom4GnlRCwxRRsbgBjQ-18" value="Data center 1" style="text;html=1;align=center;verticalAlign=middle;whiteSpace=wrap;rounded=0;" vertex="1" parent="1">
          <mxGeometry x="120" y="420" width="110" height="30" as="geometry" />
        </mxCell>
        <mxCell id="-gom4GnlRCwxRRsbgBjQ-20" value="&lt;span style=&quot;background-color: rgb(251, 251, 251);&quot;&gt;vCSA server&lt;/span&gt;" style="image;points=[];aspect=fixed;html=1;align=center;shadow=0;dashed=0;image=img/lib/allied_telesis/computer_and_terminals/Server_Desktop.svg;" vertex="1" parent="1">
          <mxGeometry x="188.7" y="660" width="42.599999999999994" height="54" as="geometry" />
        </mxCell>
        <mxCell id="-gom4GnlRCwxRRsbgBjQ-21" value="" style="endArrow=none;html=1;rounded=0;" edge="1" parent="1" source="-gom4GnlRCwxRRsbgBjQ-20" target="-gom4GnlRCwxRRsbgBjQ-4">
          <mxGeometry width="50" height="50" relative="1" as="geometry">
            <mxPoint x="420" y="770" as="sourcePoint" />
            <mxPoint x="470" y="720" as="targetPoint" />
          </mxGeometry>
        </mxCell>
        <mxCell id="-gom4GnlRCwxRRsbgBjQ-22" value="&amp;nbsp;- Physical servers" style="shadow=0;dashed=0;html=1;labelPosition=right;verticalLabelPosition=middle;verticalAlign=middle;align=left;outlineConnect=0;shape=mxgraph.veeam.3d.esx_esxi;" vertex="1" parent="1">
          <mxGeometry x="160" y="240" width="38" height="52" as="geometry" />
        </mxCell>
        <mxCell id="-gom4GnlRCwxRRsbgBjQ-23" value="&lt;span style=&quot;background-color: rgb(251, 251, 251);&quot;&gt;&amp;nbsp;- VMs&lt;/span&gt;" style="image;points=[];aspect=fixed;html=1;align=left;shadow=0;dashed=0;image=img/lib/allied_telesis/computer_and_terminals/Server_Desktop.svg;labelPosition=right;verticalLabelPosition=middle;verticalAlign=middle;" vertex="1" parent="1">
          <mxGeometry x="157.7" y="300" width="42.599999999999994" height="54" as="geometry" />
        </mxCell>
      </root>
    </mxGraphModel>
  </diagram>
</mxfile>
